<svg xmlns="http://www.w3.org/2000/svg" width="464" height="212" viewBox="0 0 464 212">
  <rect width="464" height="212" fill="#0f172a" rx="12"/><text x="232" y="26" font-size="12" font-weight="700" fill="#94a3b8" text-anchor="middle" letter-spacing="1" font-family="-apple-system,sans-serif">STATUS INDICATORS</text><rect x="20" y="56" width="100" height="64" rx="8" fill="rgba(34,197,94,0.12)" stroke="#22c55e" stroke-width="0"/><rect x="20" y="56" width="3" height="64" rx="2" fill="#22c55e" opacity="0.8"/><text x="28" y="72" font-size="11" font-family="Segoe UI Emoji,Apple Color Emoji,sans-serif">🛡️</text><circle cx="113" cy="67" r="4" fill="#22c55e"/><text x="42" y="72" font-size="8.5" fill="#94a3b8" font-family="-apple-system,sans-serif">Insurance</text><text x="28" y="90" font-size="11" font-weight="700" fill="#22c55e" font-family="-apple-system,sans-serif">142 days</text><text x="28" y="106" font-size="8" fill="#64748b" font-family="-apple-system,sans-serif">01 Sep 2025</text><rect x="128" y="56" width="100" height="64" rx="8" fill="rgba(245,158,11,0.14)" stroke="#f59e0b" stroke-width="0"/><rect x="128" y="56" width="3" height="64" rx="2" fill="#f59e0b" opacity="0.8"/><text x="136" y="72" font-size="11" font-family="Segoe UI Emoji,Apple Color Emoji,sans-serif">🔍</text><circle cx="221" cy="67" r="4" fill="#f59e0b"/><text x="150" y="72" font-size="8.5" fill="#94a3b8" font-family="-apple-system,sans-serif">Inspection</text><text x="136" y="90" font-size="11" font-weight="700" fill="#f59e0b" font-family="-apple-system,sans-serif">Warning</text><text x="136" y="106" font-size="8" fill="#64748b" font-family="-apple-system,sans-serif">26 Mar 2025</text><rect x="236" y="56" width="100" height="64" rx="8" fill="rgba(239,68,68,0.14)" stroke="#ef4444" stroke-width="0"/><rect x="236" y="56" width="3" height="64" rx="2" fill="#ef4444" opacity="0.8"/><text x="244" y="72" font-size="11" font-family="Segoe UI Emoji,Apple Color Emoji,sans-serif">🛣️</text><circle cx="329" cy="67" r="4" fill="#ef4444"/><text x="258" y="72" font-size="8.5" fill="#94a3b8" font-family="-apple-system,sans-serif">Vignette</text><text x="244" y="90" font-size="11" font-weight="700" fill="#ef4444" font-family="-apple-system,sans-serif">3 days</text><text x="244" y="106" font-size="8" fill="#64748b" font-family="-apple-system,sans-serif">15 Mar 2025</text><rect x="344" y="56" width="100" height="64" rx="8" fill="rgba(220,38,38,0.16)" stroke="#dc2626" stroke-width="0"/><rect x="344" y="56" width="3" height="64" rx="2" fill="#dc2626" opacity="0.8"/><text x="352" y="72" font-size="11" font-family="Segoe UI Emoji,Apple Color Emoji,sans-serif">🧯</text><circle cx="437" cy="67" r="4" fill="#dc2626"/><text x="366" y="72" font-size="8.5" fill="#94a3b8" font-family="-apple-system,sans-serif">Fire Ext.</text><text x="352" y="90" font-size="11" font-weight="700" fill="#dc2626" font-family="-apple-system,sans-serif">Expired</text><text x="352" y="106" font-size="8" fill="#64748b" font-family="-apple-system,sans-serif">28 Feb 2025</text><rect x="20" y="128" width="100" height="64" rx="8" fill="rgba(220,38,38,0.16)" stroke="#dc2626" stroke-width="0"/><rect x="20" y="128" width="3" height="64" rx="2" fill="#dc2626" opacity="0.8"/><text x="28" y="144" font-size="11" font-family="Segoe UI Emoji,Apple Color Emoji,sans-serif">🛢️</text><circle cx="113" cy="139" r="4" fill="#dc2626"/><text x="42" y="144" font-size="8.5" fill="#94a3b8" font-family="-apple-system,sans-serif">Oil Change</text><text x="28" y="162" font-size="11" font-weight="700" fill="#dc2626" font-family="-apple-system,sans-serif">+340 km due</text><text x="28" y="178" font-size="8" fill="#64748b" font-family="-apple-system,sans-serif">acum 45 zile</text><rect x="128" y="128" width="100" height="64" rx="8" fill="rgba(245,158,11,0.14)" stroke="#f59e0b" stroke-width="0"/><rect x="128" y="128" width="3" height="64" rx="2" fill="#f59e0b" opacity="0.8"/><text x="136" y="144" font-size="11" font-family="Segoe UI Emoji,Apple Color Emoji,sans-serif">⚙️</text><circle cx="221" cy="139" r="4" fill="#f59e0b"/><text x="150" y="144" font-size="8.5" fill="#94a3b8" font-family="-apple-system,sans-serif">Timing Belt</text><text x="136" y="162" font-size="11" font-weight="700" fill="#f59e0b" font-family="-apple-system,sans-serif">2 100 km</text><text x="136" y="178" font-size="8" fill="#64748b" font-family="-apple-system,sans-serif">300 days ago</text><rect x="236" y="128" width="100" height="64" rx="8" fill="rgba(107,114,128,0.08)" stroke="#6b7280" stroke-width="0"/><rect x="236" y="128" width="3" height="64" rx="2" fill="#6b7280" opacity="0.8"/><text x="244" y="144" font-size="11" font-family="Segoe UI Emoji,Apple Color Emoji,sans-serif">🌿</text><circle cx="329" cy="139" r="4" fill="#6b7280"/><text x="258" y="144" font-size="8.5" fill="#94a3b8" font-family="-apple-system,sans-serif">Cabin Filter</text><text x="244" y="162" font-size="11" font-weight="700" fill="#6b7280" font-family="-apple-system,sans-serif">Not set</text><rect x="344" y="128" width="100" height="64" rx="8" fill="rgba(34,197,94,0.12)" stroke="#22c55e" stroke-width="0"/><rect x="344" y="128" width="3" height="64" rx="2" fill="#22c55e" opacity="0.8"/><text x="352" y="144" font-size="11" font-family="Segoe UI Emoji,Apple Color Emoji,sans-serif">🔋</text><circle cx="437" cy="139" r="4" fill="#22c55e"/><text x="366" y="144" font-size="8.5" fill="#94a3b8" font-family="-apple-system,sans-serif">Battery</text><text x="352" y="162" font-size="11" font-weight="700" fill="#22c55e" font-family="-apple-system,sans-serif">42 000 km</text><text x="352" y="178" font-size="8" fill="#64748b" font-family="-apple-system,sans-serif">45 days ago</text>
</svg>