<svg xmlns="http://www.w3.org/2000/svg" width="480" height="360" viewBox="0 0 480 360">
  <rect width="480" height="360" rx="14" fill="#1e293b" stroke="rgba(255,255,255,0.08)" stroke-width="1"/><rect width="480" height="52" rx="14" fill="#0f172a"/><rect y="38" width="480" height="14" fill="#0f172a"/><text x="24" y="20" font-size="11" fill="#94a3b8" font-family="-apple-system,sans-serif" font-weight="700" letter-spacing="0.5">INTEGRATIONS  /  ADD INTEGRATION</text><text x="24" y="42" font-size="15" fill="#f1f5f9" font-family="-apple-system,sans-serif" font-weight="800">Vehicle Manager</text><text x="456" y="42" font-size="22" fill="#475569" text-anchor="end" font-family="-apple-system,sans-serif">✕</text><rect x="24" y="56" width="136" height="20" rx="10" fill="#3b82f6"/><text x="92" y="70" font-size="9" fill="#f1f5f9" text-anchor="middle" font-family="-apple-system,sans-serif" font-weight="600">1 · Vehicle Info</text><rect x="172" y="56" width="136" height="20" rx="10" fill="#334155"/><text x="240" y="70" font-size="9" fill="#475569" text-anchor="middle" font-family="-apple-system,sans-serif" font-weight="600">2 · Documents</text><rect x="320" y="56" width="136" height="20" rx="10" fill="#334155"/><text x="388" y="70" font-size="9" fill="#475569" text-anchor="middle" font-family="-apple-system,sans-serif" font-weight="600">3 · Service</text><text x="24" y="92" font-size="9.5" fill="#94a3b8" font-family="-apple-system,sans-serif">Vehicle Name</text><rect x="24" y="96" width="432" height="22" rx="6" fill="#0f172a" stroke="#334155" stroke-width="1"/><text x="34" y="111" font-size="11" fill="#e2e8f0" font-family="-apple-system,sans-serif">Dacia Logan</text><text x="24" y="128" font-size="9.5" fill="#94a3b8" font-family="-apple-system,sans-serif">Make (Brand)</text><rect x="24" y="132" width="432" height="22" rx="6" fill="#0f172a" stroke="#334155" stroke-width="1"/><text x="34" y="147" font-size="11" fill="#e2e8f0" font-family="-apple-system,sans-serif">Dacia</text><text x="24" y="164" font-size="9.5" fill="#94a3b8" font-family="-apple-system,sans-serif">Model</text><rect x="24" y="168" width="432" height="22" rx="6" fill="#0f172a" stroke="#334155" stroke-width="1"/><text x="34" y="183" font-size="11" fill="#e2e8f0" font-family="-apple-system,sans-serif">Logan</text><text x="24" y="200" font-size="9.5" fill="#94a3b8" font-family="-apple-system,sans-serif">Year</text><rect x="24" y="204" width="432" height="22" rx="6" fill="#0f172a" stroke="#334155" stroke-width="1"/><text x="34" y="219" font-size="11" fill="#e2e8f0" font-family="-apple-system,sans-serif">2019</text><text x="24" y="236" font-size="9.5" fill="#94a3b8" font-family="-apple-system,sans-serif">License Plate</text><rect x="24" y="240" width="432" height="22" rx="6" fill="#0f172a" stroke="#334155" stroke-width="1"/><text x="34" y="255" font-size="11" fill="#e2e8f0" font-family="-apple-system,sans-serif">B-123-ABC</text><text x="24" y="272" font-size="9.5" fill="#94a3b8" font-family="-apple-system,sans-serif">Country</text><rect x="24" y="276" width="432" height="22" rx="6" fill="#0f172a" stroke="#334155" stroke-width="1"/><text x="34" y="291" font-size="11" fill="#e2e8f0" font-family="-apple-system,sans-serif">România 🇷🇴</text><text x="448" y="291" font-size="9" fill="#475569" font-family="-apple-system,sans-serif">▼</text><text x="24" y="308" font-size="9.5" fill="#94a3b8" font-family="-apple-system,sans-serif">Card Language</text><rect x="24" y="312" width="432" height="22" rx="6" fill="#0f172a" stroke="#334155" stroke-width="1"/><text x="34" y="327" font-size="11" fill="#e2e8f0" font-family="-apple-system,sans-serif">Română</text><text x="448" y="327" font-size="9" fill="#475569" font-family="-apple-system,sans-serif">▼</text><rect x="24" y="314" width="100" height="30" rx="8" fill="#1e293b" stroke="#334155" stroke-width="1"/><text x="74" y="334" font-size="11" fill="#94a3b8" text-anchor="middle" font-family="-apple-system,sans-serif">Cancel</text><rect x="346" y="314" width="110" height="30" rx="8" fill="#3b82f6"/><text x="401" y="334" font-size="11" fill="#fff" text-anchor="middle" font-family="-apple-system,sans-serif" font-weight="600">Next →</text>
</svg>